<?xml version="1.0" encoding="UTF-8" standalone="no"?>
<!-- Created with Inkscape (http://www.inkscape.org/) -->

<svg
   xmlns:dc="http://purl.org/dc/elements/1.1/"
   xmlns:cc="http://creativecommons.org/ns#"
   xmlns:rdf="http://www.w3.org/1999/02/22-rdf-syntax-ns#"
   xmlns:svg="http://www.w3.org/2000/svg"
   xmlns="http://www.w3.org/2000/svg"
   xmlns:sodipodi="http://sodipodi.sourceforge.net/DTD/sodipodi-0.dtd"
   xmlns:inkscape="http://www.inkscape.org/namespaces/inkscape"
   width="210mm"
   height="297mm"
   viewBox="0 0 210 297"
   version="1.1"
   id="svg848"
   inkscape:version="0.92.3 (2405546, 2018-03-11)"
   sodipodi:docname="figuras.svg">
  <defs
     id="defs842" />
  <sodipodi:namedview
     id="base"
     pagecolor="#ffffff"
     bordercolor="#666666"
     borderopacity="1.0"
     inkscape:pageopacity="0.0"
     inkscape:pageshadow="2"
     inkscape:zoom="0.98994949"
     inkscape:cx="261.15552"
     inkscape:cy="597.42046"
     inkscape:document-units="mm"
     inkscape:current-layer="layer1"
     showgrid="false"
     inkscape:measure-start="0,0"
     inkscape:measure-end="0,0"
     inkscape:window-width="1920"
     inkscape:window-height="1017"
     inkscape:window-x="-8"
     inkscape:window-y="-8"
     inkscape:window-maximized="1" />
  <metadata
     id="metadata845">
    <rdf:RDF>
      <cc:Work
         rdf:about="">
        <dc:format>image/svg+xml</dc:format>
        <dc:type
           rdf:resource="http://purl.org/dc/dcmitype/StillImage" />
        <dc:title></dc:title>
      </cc:Work>
    </rdf:RDF>
  </metadata>
  <g
     inkscape:label="Capa 1"
     inkscape:groupmode="layer"
     id="layer1">
    <path
       sodipodi:type="star"
       style="fill:#ffcc00;stroke-width:0.12381183"
       id="path6053"
       sodipodi:sides="6"
       sodipodi:cx="54.99498"
       sodipodi:cy="69.964415"
       sodipodi:r1="16.408583"
       sodipodi:r2="14.210248"
       sodipodi:arg1="0.52359878"
       sodipodi:arg2="1.0471976"
       inkscape:flatsided="true"
       inkscape:rounded="0"
       inkscape:randomized="0"
       d="m 69.205229,78.168708 -14.210249,8.204291 -14.21025,-8.204291 0,-16.408583 14.21025,-8.204291 14.210249,8.204291 z" />
    <path
       id="rect6078"
       style="fill:#008080;stroke-width:0.22897527"
       d="m 175.12471,42.568816 2.37762,-3.633962 v 7.817801 h -5 z m -5.12241,37.470299 h 10 v 3 h -10 z m 2.50002,-33.286461 h 5 v 50 h -5 z"
       inkscape:connector-curvature="0" />
    <path
       id="path6087"
       style="fill:#800000;stroke-width:0.11166117"
       d="M 126.84993,62.460411 H 96.29934 l 15.2753,-10.000001 z m -15.2753,22.904162 -15.275297,-22.912944 30.550597,-3e-6 z m 11.45648,8e-6 h -22.91295 l 11.45647,-15.275297 z"
       inkscape:connector-curvature="0" />
    <path
       id="path6099-5-9"
       style="fill:#0d5d00;fill-opacity:1;stroke-width:0.06599343"
       d="m 149.91793,41.245786 7.46728,8.239687 -14.93455,1e-6 z m 10e-6,57.969441 -7.46728,-49.729704 14.93455,-10e-7 z"
       inkscape:connector-curvature="0" />
    <path
       style="fill:#008080;fill-opacity:1;stroke-width:1.18296862"
       d="M 262.39453 402.9043 L 210.92383 428.64062 L 210.92383 480.11133 L 231.51172 490.4043 L 231.51172 505.8457 L 210.92383 505.8457 L 210.92383 526.43359 L 231.51172 526.43359 L 293.27734 526.43359 L 313.86523 526.43359 L 313.86523 505.8457 L 293.27734 505.8457 L 293.27734 490.4043 L 313.86523 480.11133 L 313.86523 428.64062 L 262.39453 402.9043 z "
       transform="scale(0.26458333)"
       id="rect6160" />
    <path
       style="fill:#aa4400;fill-opacity:1;stroke-width:0.18758562"
       d="m 114.68912,104.11168 -1.72784,6.3076 -17.404327,5.32293 2.439394,7.9748 7.992943,-2.44457 3.71065,1.05152 -2.78299,10.15818 h -3.62929 v 4.63521 h 22.62308 v -4.63521 h -3.44894 z"
       id="rect6358"
       inkscape:connector-curvature="0" />
    <path
       style="fill:#d4aa00;fill-opacity:1;stroke-width:0.27705953"
       d="m 148.12277,106.73778 -8.13077,17.74724 -6.86935,-12.74703 v 27.74042 0.0941 h 15.00012 l -0.0506,-0.0941 h 0.10128 l -0.0506,0.0941 h 14.9996 v -0.0941 -27.74042 l -6.86883,12.74703 z"
       id="path6366"
       inkscape:connector-curvature="0" />
  </g>
</svg>
